HIERARCHY
ROOT Hips
{
	OFFSET 0.000000 83.214638 0.000000
	CHANNELS 6 Xposition Yposition Zposition Xrotation Yrotation Zrotation
	JOINT Pelvis
	{
		OFFSET 0.000000 0.000000 0.000000
		CHANNELS 3 Xrotation Yrotation Zrotation
		JOINT LeftUpLeg
		{
			OFFSET 8.479700 -4.795502 -0.379100
			CHANNELS 3 Xrotation Yrotation Zrotation
			JOINT LeftLeg
			{
				OFFSET 0.024144 -32.555107 0.112900
				CHANNELS 3 Xrotation Yrotation Zrotation
				JOINT LeftFoot
				{
					OFFSET -0.024144 -32.638630 -3.012600
					CHANNELS 3 Xrotation Yrotation Zrotation
					JOINT LeftToeBase
					{
						OFFSET 0.970200 -13.225400 11.864200
						CHANNELS 3 Xrotation Yrotation Zrotation
						End Site
						{
							OFFSET 0.000000 12.319262 0.000000
						}
					}
					JOINT LFootTongue
					{
						OFFSET 1.142400 -1.059800 6.665200
						CHANNELS 3 Xrotation Yrotation Zrotation
						End Site
						{
							OFFSET 0.000000 12.319262 0.000000
						}
					}
				}
				JOINT LeftPantLeg
				{
					OFFSET 0.918482 -16.533964 -2.284700
					CHANNELS 3 Xrotation Yrotation Zrotation
					End Site
					{
						OFFSET 0.350399 24.744368 0.000000
					}
				}
			}
		}
		JOINT RightUpLeg
		{
			OFFSET -8.479700 -4.795502 -0.379100
			CHANNELS 3 Xrotation Yrotation Zrotation
			JOINT RightLeg
			{
				OFFSET -0.023144 -32.555092 0.112900
				CHANNELS 3 Xrotation Yrotation Zrotation
				JOINT RightFoot
				{
					OFFSET 0.023144 -32.638641 -3.012700
					CHANNELS 3 Xrotation Yrotation Zrotation
					JOINT RightToeBase
					{
						OFFSET -0.970200 -13.225400 11.864200
						CHANNELS 3 Xrotation Yrotation Zrotation
						End Site
						{
							OFFSET 0.000000 12.319244 0.000000
						}
					}
					JOINT RFootTongue
					{
						OFFSET -1.142200 -1.059800 6.665200
						CHANNELS 3 Xrotation Yrotation Zrotation
						End Site
						{
							OFFSET 0.000000 12.319243 0.000000
						}
					}
				}
				JOINT RightPantLeg
				{
					OFFSET -0.919482 -16.533978 -2.284800
					CHANNELS 3 Xrotation Yrotation Zrotation
					End Site
					{
						OFFSET -0.350400 24.744419 0.000000
					}
				}
			}
		}
	}
	JOINT Spine
	{
		OFFSET 0.000000 7.722000 1.166200
		CHANNELS 3 Xrotation Yrotation Zrotation
		JOINT Spine1
		{
			OFFSET 0.000000 12.024101 0.248800
			CHANNELS 3 Xrotation Yrotation Zrotation
			JOINT Spine2
			{
				OFFSET 0.000000 11.502998 -0.491200
				CHANNELS 3 Xrotation Yrotation Zrotation
				JOINT Neck
				{
					OFFSET 0.000000 18.430702 -3.123100
					CHANNELS 3 Xrotation Yrotation Zrotation
					JOINT Head
					{
						OFFSET 0.000000 9.051102 1.034000
						CHANNELS 3 Xrotation Yrotation Zrotation
						JOINT HairB
						{
							OFFSET 0.208400 24.786102 24.822300
							CHANNELS 3 Xrotation Yrotation Zrotation
							End Site
							{
								OFFSET 0.000000 32.263779 0.000000
							}
						}
						JOINT HairA
						{
							OFFSET -7.081100 24.428299 23.196600
							CHANNELS 3 Xrotation Yrotation Zrotation
							End Site
							{
								OFFSET 0.000000 32.263779 0.000000
							}
						}
						JOINT Hat
						{
							OFFSET 16.728800 15.048294 -15.439601
							CHANNELS 3 Xrotation Yrotation Zrotation
							End Site
							{
								OFFSET 0.000000 32.263779 0.000000
							}
						}
					}
				}
				JOINT LeftShoulder
				{
					OFFSET 6.197800 13.665199 -4.064700
					CHANNELS 3 Xrotation Yrotation Zrotation
					JOINT LeftArm
					{
						OFFSET 7.778100 -0.187103 -1.709300
						CHANNELS 3 Xrotation Yrotation Zrotation
						JOINT LeftForeArm
						{
							OFFSET 22.049376 0.000000 0.000000
							CHANNELS 3 Xrotation Yrotation Zrotation
							JOINT LeftHand
							{
								OFFSET 23.009392 0.000000 0.000000
								CHANNELS 3 Xrotation Yrotation Zrotation
								JOINT LeftHandThumb1
								{
									OFFSET 3.507191 -2.063065 3.133727
									CHANNELS 3 Xrotation Yrotation Zrotation
									JOINT LeftHandThumb2
									{
										OFFSET 3.101337 -1.790558 1.790558
										CHANNELS 3 Xrotation Yrotation Zrotation
										JOINT LeftHandThumb3
										{
											OFFSET 3.058640 -1.765907 1.765906
											CHANNELS 3 Xrotation Yrotation Zrotation
											End Site
											{
												OFFSET -0.415260 3.926476 -0.049563
											}
										}
									}
								}
								JOINT LeftHandIndex1
								{
									OFFSET 11.334419 -0.901459 3.706815
									CHANNELS 3 Xrotation Yrotation Zrotation
									JOINT LeftHandIndex2
									{
										OFFSET 3.283112 0.000000 0.000000
										CHANNELS 3 Xrotation Yrotation Zrotation
										JOINT LeftHandIndex3
										{
											OFFSET 3.323853 0.000000 0.000000
											CHANNELS 3 Xrotation Yrotation Zrotation
											End Site
											{
												OFFSET -1.135597 3.097809 0.402452
											}
										}
									}
								}
								JOINT LeftHandMiddle1
								{
									OFFSET 11.335861 0.000000 0.000000
									CHANNELS 3 Xrotation Yrotation Zrotation
									JOINT LeftHandMiddle2
									{
										OFFSET 3.410492 0.000000 0.000000
										CHANNELS 3 Xrotation Yrotation Zrotation
										JOINT LeftHandMiddle3
										{
											OFFSET 3.312172 0.000000 0.000000
											CHANNELS 3 Xrotation Yrotation Zrotation
											End Site
											{
												OFFSET -1.150200 3.080154 0.400270
											}
										}
									}
								}
								JOINT LeftHandRing1
								{
									OFFSET 11.514786 -0.013176 -3.003090
									CHANNELS 3 Xrotation Yrotation Zrotation
									JOINT LeftHandRing2
									{
										OFFSET 3.053307 0.000000 0.000000
										CHANNELS 3 Xrotation Yrotation Zrotation
										JOINT LeftHandRing3
										{
											OFFSET 3.295807 0.000000 0.000000
											CHANNELS 3 Xrotation Yrotation Zrotation
											End Site
											{
												OFFSET -1.281006 3.013344 0.375733
											}
										}
									}
								}
								JOINT LeftHandPinky1
								{
									OFFSET 10.518692 -0.960396 -5.730441
									CHANNELS 3 Xrotation Yrotation Zrotation
									JOINT LeftHandPinky2
									{
										OFFSET 2.861649 0.000000 0.000000
										CHANNELS 3 Xrotation Yrotation Zrotation
										JOINT LeftHandPinky3
										{
											OFFSET 2.863380 0.000000 0.000000
											CHANNELS 3 Xrotation Yrotation Zrotation
											End Site
											{
												OFFSET -0.843597 2.711159 0.369971
											}
										}
									}
								}
							}
							JOINT LSleeve
							{
								OFFSET 6.676277 -0.344902 -1.011730
								CHANNELS 3 Xrotation Yrotation Zrotation
								End Site
								{
									OFFSET 0.000000 14.885353 0.000000
								}
							}
						}
					}
				}
				JOINT RightShoulder
				{
					OFFSET -6.197800 13.665199 -4.064700
					CHANNELS 3 Xrotation Yrotation Zrotation
					JOINT RightArm
					{
						OFFSET -7.778100 -0.187103 -1.709300
						CHANNELS 3 Xrotation Yrotation Zrotation
						JOINT RightForeArm
						{
							OFFSET -22.049376 0.000000 0.000000
							CHANNELS 3 Xrotation Yrotation Zrotation
							JOINT RightHand
							{
								OFFSET -23.009392 0.000000 0.000000
								CHANNELS 3 Xrotation Yrotation Zrotation
								JOINT RightHandThumb1
								{
									OFFSET -3.507191 -2.063065 3.133727
									CHANNELS 3 Xrotation Yrotation Zrotation
									JOINT RightHandThumb2
									{
										OFFSET -3.101337 -1.790558 1.790558
										CHANNELS 3 Xrotation Yrotation Zrotation
										JOINT RightHandThumb3
										{
											OFFSET -3.058640 -1.765907 1.765906
											CHANNELS 3 Xrotation Yrotation Zrotation
											End Site
											{
												OFFSET 0.415260 3.926476 -0.049563
											}
										}
									}
								}
								JOINT RightHandIndex1
								{
									OFFSET -11.334419 -0.901459 3.706815
									CHANNELS 3 Xrotation Yrotation Zrotation
									JOINT RightHandIndex2
									{
										OFFSET -3.283112 0.000000 0.000000
										CHANNELS 3 Xrotation Yrotation Zrotation
										JOINT RightHandIndex3
										{
											OFFSET -3.323853 0.000000 0.000000
											CHANNELS 3 Xrotation Yrotation Zrotation
											End Site
											{
												OFFSET 1.135597 3.097809 0.402452
											}
										}
									}
								}
								JOINT RightHandMiddle1
								{
									OFFSET -11.335861 0.000000 0.000000
									CHANNELS 3 Xrotation Yrotation Zrotation
									JOINT RightHandMiddle2
									{
										OFFSET -3.410492 0.000000 0.000000
										CHANNELS 3 Xrotation Yrotation Zrotation
										JOINT RightHandMiddle3
										{
											OFFSET -3.312172 0.000000 0.000000
											CHANNELS 3 Xrotation Yrotation Zrotation
											End Site
											{
												OFFSET 1.150200 3.080154 0.400270
											}
										}
									}
								}
								JOINT RightHandRing1
								{
									OFFSET -11.514786 -0.013176 -3.003090
									CHANNELS 3 Xrotation Yrotation Zrotation
									JOINT RightHandRing2
									{
										OFFSET -3.053307 0.000000 0.000000
										CHANNELS 3 Xrotation Yrotation Zrotation
										JOINT RightHandRing3
										{
											OFFSET -3.295807 0.000000 0.000000
											CHANNELS 3 Xrotation Yrotation Zrotation
											End Site
											{
												OFFSET 1.281006 3.013344 0.375733
											}
										}
									}
								}
								JOINT RightHandPinky1
								{
									OFFSET -10.518692 -0.960396 -5.730441
									CHANNELS 3 Xrotation Yrotation Zrotation
									JOINT RightHandPinky2
									{
										OFFSET -2.861649 0.000000 0.000000
										CHANNELS 3 Xrotation Yrotation Zrotation
										JOINT RightHandPinky3
										{
											OFFSET -2.863380 0.000000 0.000000
											CHANNELS 3 Xrotation Yrotation Zrotation
											End Site
											{
												OFFSET 0.843597 2.711159 0.369971
											}
										}
									}
								}
							}
							JOINT RSleeve
							{
								OFFSET -6.676277 -0.344902 -1.011730
								CHANNELS 3 Xrotation Yrotation Zrotation
								End Site
								{
									OFFSET 0.000000 14.885353 0.000000
								}
							}
						}
					}
				}
				JOINT Backpack
				{
					OFFSET 0.000000 -2.471497 36.677502
					CHANNELS 3 Xrotation Yrotation Zrotation
					End Site
					{
						OFFSET 0.000000 20.427315 0.000000
					}
				}
				JOINT Hood
				{
					OFFSET 0.000000 18.754097 -10.431000
					CHANNELS 3 Xrotation Yrotation Zrotation
					JOINT Hood1
					{
						OFFSET 0.000000 -5.011002 -7.685901
						CHANNELS 3 Xrotation Yrotation Zrotation
						End Site
						{
							OFFSET 0.000000 9.175140 0.000000
						}
					}
				}
				JOINT LHoodieString
				{
					OFFSET 5.250500 16.397697 3.089900
					CHANNELS 3 Xrotation Yrotation Zrotation
					JOINT LHoodieString1
					{
						OFFSET 0.257700 -6.364304 3.694600
						CHANNELS 3 Xrotation Yrotation Zrotation
						JOINT LHoodieString2
						{
							OFFSET 0.000000 -9.643799 2.679100
							CHANNELS 3 Xrotation Yrotation Zrotation
							End Site
							{
								OFFSET 0.000000 10.009018 0.000000
							}
						}
					}
				}
				JOINT RHoodieString
				{
					OFFSET -5.250500 16.397697 3.089900
					CHANNELS 3 Xrotation Yrotation Zrotation
					JOINT RHoodieString1
					{
						OFFSET -0.257700 -6.364304 3.694600
						CHANNELS 3 Xrotation Yrotation Zrotation
						JOINT RHoodieString2
						{
							OFFSET 0.000000 -9.643799 2.679100
							CHANNELS 3 Xrotation Yrotation Zrotation
							End Site
							{
								OFFSET 0.000000 10.009018 0.000000
							}
						}
					}
				}
			}
			JOINT LBackpack_Strap
			{
				OFFSET 15.223200 -7.719803 -6.610900
				CHANNELS 3 Xrotation Yrotation Zrotation
				End Site
				{
					OFFSET 0.000000 16.040596 0.000000
				}
			}
			JOINT RBackpack_Strap
			{
				OFFSET -15.223000 -7.719803 -6.610900
				CHANNELS 3 Xrotation Yrotation Zrotation
				End Site
				{
					OFFSET 0.000000 16.040596 0.000000
				}
			}
		}
	}
	JOINT BoyFacialAnim_Joint
	{
		OFFSET 1.000000 -82.208099 -1.550900
		CHANNELS 3 Xrotation Yrotation Zrotation
		End Site
		{
			OFFSET 0.000000 30.012791 0.000000
		}
	}
}
MOTION
Frames: 4
Frame Time: 0.033333
-0.364380 68.311478 0.943793 9.955728 -7.122435 -11.545341 -0.000000 -0.000000 -0.000001 -74.326296 -11.420043 -3.076540 141.972285 4.839370 -1.185175 36.051651 -4.516524 -16.042858 -0.000000 0.000000 -0.000001 -0.000000 0.000000 -0.000000 0.000001 -0.000000 0.000001 -21.126876 -10.383938 0.974300 67.969255 -0.026381 11.465066 -19.670088 13.416659 -5.695436 0.000001 0.000000 -0.000000 0.000001 0.000000 -0.000000 0.000003 -0.000000 0.000001 1.731396 3.905754 21.386072 3.189192 0.673180 -4.455899 3.243116 0.689297 -4.426722 16.182308 0.231561 -0.326562 -27.641260 -0.484978 -2.240866 0.000000 0.000000 0.000000 0.000000 0.000000 0.000000 0.000000 0.000000 0.000000 1.044393 -4.331110 5.644748 43.496171 -18.741867 -61.309711 0.000004 -49.960754 0.000005 -22.228087 -30.789571 3.701273 2.343230 -8.184994 1.577352 6.604798 17.244303 1.779961 0.000002 0.000002 -0.000000 -4.468345 -1.693570 7.469220 0.523190 2.421911 -24.376482 -0.000003 0.000002 0.000000 0.908438 7.203947 -10.982919 0.597475 2.579433 -26.079107 -0.000003 -0.000001 -0.000002 2.538983 6.697211 -21.181224 0.416168 2.170473 -21.705791 0.000001 0.000002 0.000002 0.907531 13.752887 -26.413007 0.216905 1.580910 -15.623834 0.000001 0.000002 -0.000000 0.000001 0.000001 -0.000001 0.840542 -2.594269 9.893152 -41.269246 21.228530 76.633835 0.000054 73.634637 -0.000061 -13.970878 6.251457 7.972852 -34.178943 1.336771 -11.053438 7.572725 -24.732602 -2.902733 -0.000002 0.000002 -0.000001 0.054156 -2.043215 -2.932922 0.129346 -1.091058 13.520151 0.000000 -0.000001 0.000005 0.293392 -4.853147 7.357804 0.392162 -1.872286 23.658175 -0.000001 -0.000001 -0.000002 0.838588 -9.145139 8.385714 0.744522 -2.527930 32.817116 -0.000000 0.000000 0.000002 1.676625 -4.912419 9.403933 0.283128 -1.600577 20.060513 0.000000 0.000000 0.000000 0.000000 -0.000000 -0.000001 0.000001 0.000000 0.000000 0.000001 0.000000 0.000000 0.000001 0.000000 0.000000 0.000001 0.000000 0.000000 0.000001 0.000000 -0.000000 -0.000001 -0.000000 0.000000 0.000001 0.000000 0.000000 0.000001 0.000000 -0.000000 -0.000001 -0.000000 0.000000 -0.000003 0.000000 0.000000 -0.000003 0.000000 0.000000 -0.000000 -0.000000 -0.000001 
0.111074 73.587883 19.093269 7.046107 -20.157273 -0.875878 -0.000001 -0.000001 0.000000 -103.735875 -23.715084 -5.754325 133.303094 -3.255689 -1.666447 51.861162 -6.984436 -19.901967 -0.000000 0.000000 -0.000000 -0.000000 0.000000 0.000000 -0.000002 -0.000002 -0.000001 -0.706516 -10.110250 -15.100838 39.035238 -0.316258 6.841003 4.896814 25.367338 -7.986995 -0.000001 -0.000000 0.000000 -0.000001 -0.000000 0.000000 0.000001 -0.000000 0.000002 3.239417 21.899863 8.834787 2.561346 2.679815 -6.712674 2.758561 2.415023 -6.795571 13.735674 -1.165318 -3.717668 -20.834411 -9.032238 -4.595744 0.000000 0.000000 0.000000 0.000000 0.000000 0.000000 0.000000 0.000000 0.000000 0.632202 0.191777 5.085453 40.110590 -9.381662 -59.565786 0.000002 -29.384778 -0.000004 0.998671 -22.426069 -2.140214 2.611401 -5.875363 0.883901 6.603351 17.238134 1.781111 -0.000001 0.000001 -0.000000 -4.561146 -0.561700 9.442961 0.489119 2.345342 -23.557389 -0.000000 -0.000001 -0.000002 1.134397 6.046996 -7.553082 0.465011 2.289281 -22.961054 -0.000002 -0.000001 0.000000 3.076888 7.616625 -16.657614 0.420109 2.180359 -21.809786 0.000002 0.000002 -0.000002 2.289917 13.928640 -19.260749 0.287134 1.813294 -17.994828 -0.000002 0.000002 0.000000 -0.000000 0.000000 0.000000 -0.540322 0.303827 3.361359 -50.876337 26.684849 62.867090 0.000150 76.660643 -0.000130 -4.641176 2.468862 22.421027 -31.347252 1.213670 -9.876464 6.688789 -22.563065 -3.176447 0.000002 -0.000001 -0.000003 0.052138 -2.086698 -2.398737 0.148089 -1.166246 14.471653 -0.000002 0.000000 0.000005 -0.264865 -5.191060 7.507047 0.362506 -1.803136 22.733607 0.000000 0.000002 0.000000 1.193603 -9.358374 8.909447 0.660165 -2.392202 30.852128 -0.000000 -0.000002 0.000000 1.764511 -4.875166 11.259938 0.269020 -1.561445 19.549470 -0.000004 0.000002 0.000001 -0.000000 -0.000001 -0.000001 0.000003 0.000001 -0.000000 0.000003 0.000001 -0.000000 0.000003 0.000001 -0.000000 0.000003 0.000001 -0.000000 0.000003 0.000001 -0.000000 0.000002 0.000001 -0.000000 0.000003 0.000001 -0.000000 0.000003 0.000001 -0.000000 0.000002 0.000001 -0.000000 -0.000000 -0.000000 0.000000 -0.000000 -0.000000 0.000000 -0.000001 -0.000001 0.000000 
-1.520873 81.717346 30.557907 6.481502 -23.737008 11.575969 -0.000000 -0.000000 0.000000 -104.592989 -24.628323 -6.681567 109.177890 2.601952 0.577341 41.307119 -1.156143 -8.805039 -0.000001 -0.000002 0.000001 -0.000001 -0.000002 -0.000001 0.000000 -0.000002 0.000001 -0.881165 -17.758108 -24.872520 23.506245 0.408730 0.941807 27.552708 26.772945 -14.058104 -0.000001 0.000000 0.000001 -0.000001 0.000000 0.000001 -0.000001 -0.000000 -0.000000 12.050066 33.154763 -9.987769 3.894316 4.051548 -7.954627 4.223471 3.759103 -7.990252 8.817327 -1.905467 -7.611088 -9.833067 -18.702154 -2.771720 -0.000000 -0.000000 -0.000002 -0.000000 -0.000000 -0.000002 -0.000000 -0.000000 -0.000002 0.071727 5.717416 2.566473 33.478343 6.097418 -48.732754 0.000003 -20.220831 -0.000007 31.036031 -17.344132 -2.420466 0.526649 -3.504359 -0.116237 6.601027 17.228432 1.782936 -0.000003 0.000001 -0.000001 -4.772990 0.784987 10.974035 0.473595 2.309416 -23.174869 0.000002 -0.000001 -0.000002 1.897467 5.560577 -6.051739 0.424535 2.191369 -21.925711 0.000001 0.000000 -0.000003 3.835647 8.946436 -14.141709 0.433581 2.213669 -22.160895 0.000001 -0.000001 0.000001 2.896766 14.315069 -11.678350 0.382948 2.085185 -20.811361 -0.000000 0.000001 0.000002 -0.000001 -0.000003 -0.000001 -1.163172 0.839817 -2.063957 -53.890090 35.887668 41.745361 0.000046 75.031021 -0.000051 -1.569721 -0.551911 30.433786 -26.563830 1.143680 -7.832866 6.905120 -23.091352 -3.112698 -0.000004 0.000003 0.000005 0.057389 -2.577075 3.624206 0.166089 -1.233909 15.331608 -0.000001 0.000002 -0.000001 -0.534396 -6.241987 13.460431 0.361618 -1.800981 22.704966 -0.000001 0.000004 0.000002 1.628634 -8.316295 14.406242 0.712030 -2.476867 32.072816 0.000000 0.000000 0.000000 1.513308 -4.362422 20.621827 0.280227 -1.592655 19.956991 0.000001 -0.000003 -0.000002 -0.000000 -0.000000 0.000001 -0.000000 -0.000001 -0.000000 -0.000000 -0.000001 -0.000000 -0.000000 -0.000001 -0.000000 -0.000000 -0.000001 -0.000000 -0.000000 -0.000001 -0.000001 -0.000000 -0.000001 -0.000001 -0.000000 -0.000001 -0.000000 -0.000000 -0.000001 -0.000001 -0.000000 -0.000001 -0.000001 -0.000001 -0.000001 0.000000 -0.000001 -0.000001 0.000000 -0.000000 -0.000000 0.000000 
-2.855701 88.043083 39.774536 5.996060 -20.849702 19.240426 0.000000 0.000001 -0.000000 -99.429536 -18.535506 -6.501240 88.495196 9.872905 3.809889 16.917151 1.081618 8.172823 -0.000000 -0.000000 0.000003 -0.000000 -0.000000 0.000003 -0.000002 0.000000 -0.000000 -1.972458 -20.644657 -27.080920 19.088432 2.160994 -2.359294 34.668821 17.791975 -3.935568 0.000001 0.000000 -0.000001 0.000001 0.000000 -0.000001 -0.000002 -0.000000 0.000000 22.397179 32.938529 -24.672547 4.575501 4.502571 -6.718743 4.836809 4.398844 -6.635519 1.920956 -1.277275 -10.965183 4.529595 -23.616258 7.231423 -0.000001 -0.000000 0.000001 -0.000001 -0.000000 0.000001 -0.000001 -0.000000 0.000001 -0.354731 9.955006 -0.126907 19.544284 25.438249 -30.003822 0.000005 -27.176262 0.000015 45.660364 -6.082625 0.647419 -2.444033 -1.639564 -1.266622 6.607878 17.257238 1.777534 -0.000001 0.000001 -0.000003 -5.007296 1.875742 12.297825 0.402563 2.136051 -21.344092 -0.000003 0.000002 -0.000005 2.663264 5.381519 -5.212822 0.363410 2.033051 -20.267499 0.000002 0.000001 0.000000 4.308737 10.073030 -11.979685 0.396000 2.119173 -21.167378 -0.000001 0.000003 -0.000003 2.803728 14.903321 -6.010094 0.430059 2.205047 -22.069827 -0.000000 -0.000002 -0.000004 0.000003 -0.000001 0.000003 -0.720954 0.001482 -4.833706 -39.988309 39.466708 7.283645 0.000003 61.598724 -0.000008 -10.634900 1.583985 21.818641 -16.810737 1.792899 -3.977617 7.275702 -24.003363 -2.997922 0.000000 0.000000 0.000000 0.121684 -3.107265 10.187043 0.225718 -1.433708 17.892828 -0.000002 0.000000 0.000002 -0.809882 -7.336162 17.063991 0.396726 -1.882623 23.797011 0.000001 0.000000 0.000003 1.478930 -7.393116 16.151379 0.817851 -2.638043 34.444050 0.000001 -0.000000 0.000002 2.186673 -4.982205 26.440077 0.283827 -1.602526 20.085836 -0.000001 0.000001 -0.000001 0.000000 -0.000000 0.000001 0.000002 -0.000002 0.000001 0.000002 -0.000002 0.000001 0.000002 -0.000002 0.000001 0.000002 -0.000002 0.000001 0.000002 -0.000002 0.000000 0.000001 -0.000001 0.000001 0.000002 -0.000002 0.000001 0.000002 -0.000002 0.000000 0.000001 -0.000001 0.000001 0.000001 0.000001 -0.000000 0.000001 0.000001 -0.000000 0.000000 0.000001 -0.000000 
